<?xml version="1.0" standalone="no"?><!DOCTYPE svg PUBLIC "-//W3C//DTD SVG 1.1//EN" "http://www.w3.org/Graphics/SVG/1.1/DTD/svg11.dtd"><svg class="icon" width="32px" height="32.00px" viewBox="0 0 1024 1024" version="1.1" xmlns="http://www.w3.org/2000/svg"><path d="M512.059352 829.39479c175.710884 0 318.152037-142.442176 318.152037-318.152037S687.770236 193.089693 512.059352 193.089693 193.906292 335.531869 193.906292 511.24173 336.348468 829.39479 512.059352 829.39479zM597.802178 379.083781c0-6.211469 2.538823-12.251022 7.615445-18.117636s14.572904-8.800433 28.486798-8.800433c13.162788 0 22.658046 2.76088 28.486798 8.28264s8.743128 11.733229 8.743128 18.635429l0 317.314972c0 6.9022-2.726088 13.027711-8.179286 18.376533-5.453199 5.348821-14.760169 8.195659-27.922956 8.541537-13.162788 0.344854-22.658046-2.501984-28.486798-8.541537-5.828752-6.039553-8.743128-12.165064-8.743128-18.376533L597.802178 561.811476 426.315502 561.811476l0 134.587278c0 6.9022-2.726088 13.027711-8.179286 18.376533-5.453199 5.348821-14.760169 8.195659-27.922956 8.541537-13.162788 0.344854-22.658046-2.501984-28.486798-8.541537-5.828752-6.039553-8.743128-12.165064-8.743128-18.376533L352.983333 379.083781c0-6.211469 2.914376-12.251022 8.743128-18.117636 5.828752-5.866614 15.325034-8.800433 28.486798-8.800433 13.162788 0 22.469758 2.76088 27.922956 8.28264 5.453199 5.52176 8.179286 11.733229 8.179286 18.635429l0 124.752282 171.486676 0L597.802178 379.083781z" /></svg>